<svg width="49" height="49" viewBox="0 0 49 49" fill="none" xmlns="http://www.w3.org/2000/svg">
<path d="M22.9333 17.3594L15.0333 25.2594C14.6561 25.6237 14.1509 25.8253 13.6265 25.8207C13.1021 25.8162 12.6005 25.6058 12.2297 25.235C11.8589 24.8642 11.6486 24.3626 11.644 23.8382C11.6394 23.3138 11.841 22.8086 12.2053 22.4314L23.5193 11.1174C23.7047 10.931 23.925 10.7831 24.1676 10.6822C24.4103 10.5813 24.6705 10.5293 24.9333 10.5293C25.1962 10.5293 25.4564 10.5813 25.699 10.6822C25.9417 10.7831 26.162 10.931 26.3473 11.1174L37.6613 22.4314C38.0167 22.8103 38.2106 23.3125 38.2022 23.8319C38.1937 24.3513 37.9836 24.847 37.6162 25.2141C37.2487 25.5813 36.7529 25.7911 36.2335 25.7992C35.7141 25.8073 35.212 25.6129 34.8333 25.2574L26.9333 17.3574V36.5294C26.9333 37.0598 26.7226 37.5685 26.3476 37.9436C25.9725 38.3187 25.4638 38.5294 24.9333 38.5294C24.4029 38.5294 23.8942 38.3187 23.5191 37.9436C23.1441 37.5685 22.9333 37.0598 22.9333 36.5294V17.3574V17.3594Z" fill="black"/>
</svg>
