<svg width="51" height="50" viewBox="0 0 51 50" fill="none" xmlns="http://www.w3.org/2000/svg">
<path d="M25.1789 5.02226C31.5888 5.02226 32.4629 5.02226 35.0851 5.02226C37.416 5.02226 38.8728 5.60498 39.7469 5.89634C40.9123 6.47906 41.7864 6.77042 42.6605 7.64451C43.5346 8.51859 44.1173 9.39267 44.4086 10.5581C44.4086 11.4322 44.7 12.889 44.9914 15.2199C44.9914 17.8421 44.9914 18.4248 44.9914 25.1261C44.9914 31.8274 44.9914 32.4101 44.9914 35.0324C44.9914 37.3633 44.4086 38.8201 44.1173 39.6942C43.5346 40.8596 43.2432 41.7337 42.3691 42.6078C41.495 43.4818 40.621 44.0646 39.4555 44.3559C38.5814 44.6473 37.416 45.23 34.7938 45.23C32.1715 45.23 31.5888 45.23 24.8875 45.23C18.1862 45.23 17.6035 45.23 14.9812 45.23C12.6504 45.23 11.1936 44.6473 10.3195 44.3559C9.15404 43.7732 8.27996 43.4818 7.40588 42.6078C6.5318 41.7337 5.94908 40.8596 5.65772 39.6942C5.36636 38.8201 4.78364 37.6546 4.78364 35.0324C4.78364 32.4101 4.78364 31.8274 4.78364 25.1261C4.78364 18.4248 4.78364 17.8421 4.78364 15.2199C4.78364 12.889 5.36636 11.4322 5.65772 10.5581C6.5318 9.39267 7.11452 8.80995 7.9886 7.93587C8.86268 7.06178 9.4454 6.47906 10.6108 5.89634C11.4849 5.60498 12.9417 5.31362 15.2726 5.31362C17.8949 5.02226 18.4776 5.02226 25.1789 5.02226ZM25.1789 0.651855C18.4776 0.651855 17.6035 0.651855 14.9812 0.943216C12.359 0.943216 10.6108 1.52594 9.15404 2.10866C7.40588 2.69138 6.24044 3.56546 4.78364 5.02226C3.32683 6.47906 2.45275 7.64451 1.87003 9.39267C1.28731 10.5581 0.99595 12.3063 0.99595 14.9285C0.70459 17.5508 0.70459 18.4248 0.70459 25.1261C0.70459 31.8274 0.70459 32.7015 0.99595 35.3237C0.99595 37.946 1.57867 39.6942 2.16139 41.151C2.74411 42.8991 3.61819 44.0646 5.075 45.5214C6.5318 46.9782 7.69724 47.8522 9.4454 48.435C10.9022 49.0177 12.6504 49.309 15.2726 49.6004C17.8949 49.6004 18.7689 49.8918 25.4702 49.8918C32.1715 49.8918 33.0456 49.8918 35.6678 49.6004C38.2901 49.6004 40.0382 49.0177 41.495 48.435C43.2432 47.8522 44.4086 46.9782 45.8654 45.5214C47.3223 44.0646 48.1963 42.8991 48.7791 41.151C49.3618 39.6942 49.6531 37.946 49.9445 35.3237C49.9445 32.7015 50.2359 31.8274 50.2359 25.1261C50.2359 18.4248 50.2359 17.5508 49.9445 14.9285C49.9445 12.3063 49.3618 10.5581 48.7791 9.10131C48.1963 7.35315 47.3223 6.1877 45.8654 4.7309C44.4086 3.2741 43.2432 2.40002 41.495 1.8173C40.0382 1.23458 38.2901 0.943216 35.6678 0.651855C32.4629 0.651855 31.5888 0.651855 25.1789 0.651855Z" fill="white"/>
<path d="M25.1786 12.5977C18.186 12.5977 12.6501 18.1335 12.6501 25.1262C12.6501 32.1188 18.186 37.6547 25.1786 37.6547C32.1713 37.6547 37.7071 32.1188 37.7071 25.1262C37.7071 18.1335 31.8799 12.5977 25.1786 12.5977ZM25.1786 33.2842C20.8082 33.2842 17.0206 29.7879 17.0206 25.1262C17.0206 20.4644 20.5169 16.9681 25.1786 16.9681C29.5491 16.9681 33.3367 20.4644 33.3367 25.1262C33.3367 29.7879 29.5491 33.2842 25.1786 33.2842Z" fill="white"/>
<path d="M37.9991 14.9283C39.6082 14.9283 40.9127 13.6238 40.9127 12.0147C40.9127 10.4055 39.6082 9.10107 37.9991 9.10107C36.3899 9.10107 35.0854 10.4055 35.0854 12.0147C35.0854 13.6238 36.3899 14.9283 37.9991 14.9283Z" fill="white"/>
</svg>
