<svg width="53" height="53" viewBox="0 0 53 53" fill="none" xmlns="http://www.w3.org/2000/svg">
<path d="M25.8668 5.2792C32.6113 5.2792 33.531 5.2792 36.2902 5.2792C38.7427 5.2792 40.2756 5.89234 41.1953 6.19891C42.4216 6.81205 43.3413 7.11862 44.261 8.03833C45.1807 8.95804 45.7938 9.87775 46.1004 11.104C46.1004 12.0237 46.407 13.5566 46.7135 16.0091C46.7135 18.7683 46.7135 19.3814 46.7135 26.4325C46.7135 33.4836 46.7135 34.0967 46.7135 36.8559C46.7135 39.3084 46.1004 40.8412 45.7938 41.761C45.1807 42.9872 44.8741 43.9069 43.9544 44.8267C43.0347 45.7464 42.115 46.3595 40.8887 46.6661C39.969 46.9726 38.7427 47.5858 35.9836 47.5858C33.2245 47.5858 32.6113 47.5858 25.5602 47.5858C18.5092 47.5858 17.896 47.5858 15.1369 47.5858C12.6843 47.5858 11.1515 46.9726 10.2318 46.6661C9.0055 46.0529 8.08579 45.7464 7.16608 44.8267C6.24638 43.9069 5.63324 42.9872 5.32667 41.761C5.0201 40.8412 4.40696 39.615 4.40696 36.8559C4.40696 34.0967 4.40696 33.4836 4.40696 26.4325C4.40696 19.3814 4.40696 18.7683 4.40696 16.0091C4.40696 13.5566 5.0201 12.0237 5.32667 11.104C6.24638 9.87775 6.85952 9.26461 7.77922 8.3449C8.69893 7.42519 9.31207 6.81205 10.5383 6.19891C11.4581 5.89234 12.9909 5.58577 15.4435 5.58577C18.2026 5.2792 18.8157 5.2792 25.8668 5.2792ZM25.8668 0.680664C18.8157 0.680664 17.896 0.680664 15.1369 0.987233C12.3778 0.987233 10.5383 1.60037 9.0055 2.21351C7.16609 2.82665 5.93981 3.74636 4.40696 5.2792C2.87411 6.81205 1.95441 8.03833 1.34127 9.87774C0.728129 11.104 0.42156 12.9434 0.42156 15.7026C0.11499 18.4617 0.11499 19.3814 0.11499 26.4325C0.11499 33.4836 0.11499 34.4033 0.42156 37.1624C0.42156 39.9215 1.0347 41.761 1.64784 43.2938C2.26098 45.1332 3.18068 46.3595 4.71353 47.8923C6.24638 49.4252 7.47265 50.3449 9.31207 50.958C10.8449 51.5712 12.6843 51.8777 15.4435 52.1843C18.2026 52.1843 19.1223 52.4909 26.1734 52.4909C33.2245 52.4909 34.1442 52.4909 36.9033 52.1843C39.6624 52.1843 41.5019 51.5712 43.0347 50.958C44.8741 50.3449 46.1004 49.4252 47.6332 47.8923C49.1661 46.3595 50.0858 45.1332 50.6989 43.2938C51.3121 41.761 51.6186 39.9215 51.9252 37.1624C51.9252 34.4033 52.2318 33.4836 52.2318 26.4325C52.2318 19.3814 52.2318 18.4617 51.9252 15.7026C51.9252 12.9434 51.3121 11.104 50.6989 9.57118C50.0858 7.73176 49.1661 6.50548 47.6332 4.97264C46.1004 3.43979 44.8741 2.52008 43.0347 1.90694C41.5019 1.2938 39.6624 0.987233 36.9033 0.680664C33.531 0.680664 32.6113 0.680664 25.8668 0.680664Z" fill="#B900B4"/>
<path d="M25.8666 13.25C18.5089 13.25 12.6841 19.0748 12.6841 26.4325C12.6841 33.7901 18.5089 39.615 25.8666 39.615C33.2242 39.615 39.0491 33.7901 39.0491 26.4325C39.0491 19.0748 32.9177 13.25 25.8666 13.25ZM25.8666 35.0164C21.268 35.0164 17.2826 31.3376 17.2826 26.4325C17.2826 21.5274 20.9615 17.8485 25.8666 17.8485C30.4651 17.8485 34.4505 21.5274 34.4505 26.4325C34.4505 31.3376 30.4651 35.0164 25.8666 35.0164Z" fill="#B900B4"/>
<path d="M39.3562 15.7027C41.0494 15.7027 42.4219 14.3301 42.4219 12.637C42.4219 10.9438 41.0494 9.57129 39.3562 9.57129C37.6631 9.57129 36.2905 10.9438 36.2905 12.637C36.2905 14.3301 37.6631 15.7027 39.3562 15.7027Z" fill="#B900B4"/>
</svg>
