<svg width="53" height="53" viewBox="0 0 53 53" fill="none" xmlns="http://www.w3.org/2000/svg">
<path d="M25.7518 5.54288C32.4963 5.54288 33.4161 5.54288 36.1752 5.54288C38.6277 5.54288 40.1606 6.15601 41.0803 6.46258C42.3066 7.07572 43.2263 7.38229 44.146 8.302C45.0657 9.22171 45.6788 10.1414 45.9854 11.3677C45.9854 12.2874 46.292 13.8202 46.5985 16.2728C46.5985 19.0319 46.5985 19.6451 46.5985 26.6962C46.5985 33.7473 46.5985 34.3604 46.5985 37.1195C46.5985 39.5721 45.9854 41.1049 45.6788 42.0246C45.0657 43.2509 44.7591 44.1706 43.8394 45.0903C42.9197 46.01 42 46.6232 40.7737 46.9297C39.854 47.2363 38.6277 47.8494 35.8686 47.8494C33.1095 47.8494 32.4963 47.8494 25.4453 47.8494C18.3942 47.8494 17.781 47.8494 15.0219 47.8494C12.5693 47.8494 11.0365 47.2363 10.1168 46.9297C8.89051 46.3166 7.9708 46.01 7.05109 45.0903C6.13139 44.1706 5.51825 43.2509 5.21168 42.0246C4.90511 41.1049 4.29197 39.8786 4.29197 37.1195C4.29197 34.3604 4.29197 33.7473 4.29197 26.6962C4.29197 19.6451 4.29197 19.0319 4.29197 16.2728C4.29197 13.8202 4.90511 12.2874 5.21168 11.3677C6.13139 10.1414 6.74453 9.52828 7.66423 8.60857C8.58394 7.68886 9.19708 7.07572 10.4234 6.46258C11.3431 6.15601 12.8759 5.84945 15.3285 5.84945C18.0876 5.54288 18.7007 5.54288 25.7518 5.54288ZM25.7518 0.944336C18.7007 0.944336 17.781 0.944336 15.0219 1.25091C12.2628 1.25091 10.4234 1.86404 8.89051 2.47718C7.0511 3.09032 5.82482 4.01003 4.29197 5.54288C2.75912 7.07572 1.83942 8.302 1.22628 10.1414C0.613139 11.3677 0.306569 13.2071 0.306569 15.9662C0 18.7254 0 19.6451 0 26.6962C0 33.7473 0 34.667 0.306569 37.4261C0.306569 40.1852 0.919708 42.0246 1.53285 43.5575C2.14599 45.3969 3.06569 46.6232 4.59854 48.156C6.13139 49.6889 7.35766 50.6086 9.19708 51.2217C10.7299 51.8349 12.5693 52.1414 15.3285 52.448C18.0876 52.448 19.0073 52.7546 26.0584 52.7546C33.1095 52.7546 34.0292 52.7546 36.7883 52.448C39.5474 52.448 41.3869 51.8349 42.9197 51.2217C44.7591 50.6086 45.9854 49.6889 47.5182 48.156C49.0511 46.6232 49.9708 45.3969 50.5839 43.5575C51.1971 42.0246 51.5036 40.1852 51.8102 37.4261C51.8102 34.667 52.1168 33.7473 52.1168 26.6962C52.1168 19.6451 52.1168 18.7254 51.8102 15.9662C51.8102 13.2071 51.1971 11.3677 50.5839 9.83485C49.9708 7.99543 49.0511 6.76915 47.5182 5.23631C45.9854 3.70346 44.7591 2.78375 42.9197 2.17061C41.3869 1.55747 39.5474 1.25091 36.7883 0.944336C33.4161 0.944336 32.4963 0.944336 25.7518 0.944336Z" fill="#E1306C"/>
<path d="M25.7516 13.5137C18.3939 13.5137 12.5691 19.3385 12.5691 26.6962C12.5691 34.0538 18.3939 39.8786 25.7516 39.8786C33.1092 39.8786 38.9341 34.0538 38.9341 26.6962C38.9341 19.3385 32.8027 13.5137 25.7516 13.5137ZM25.7516 35.2801C21.153 35.2801 17.1676 31.6013 17.1676 26.6962C17.1676 21.791 20.8465 18.1122 25.7516 18.1122C30.3501 18.1122 34.3355 21.791 34.3355 26.6962C34.3355 31.6013 30.3501 35.2801 25.7516 35.2801Z" fill="#E1306C"/>
<path d="M39.2412 15.9663C40.9344 15.9663 42.3069 14.5938 42.3069 12.9007C42.3069 11.2075 40.9344 9.83496 39.2412 9.83496C37.5481 9.83496 36.1755 11.2075 36.1755 12.9007C36.1755 14.5938 37.5481 15.9663 39.2412 15.9663Z" fill="#E1306C"/>
</svg>
