<svg width="53" height="53" viewBox="0 0 53 53" fill="none" xmlns="http://www.w3.org/2000/svg">
<path d="M52.31 25.1193L26.3992 25.1249L15.1276 25.1277C15.0881 25.1277 15.0852 25.0713 15.1248 25.0656L51.6636 20.295C51.514 19.6458 51.3446 19.005 51.147 18.3755L14.8622 23.1122C14.8227 23.1179 14.8114 23.0614 14.851 23.0501L49.2557 13.9154C48.9311 13.3142 48.5782 12.727 48.2084 12.154L14.3344 21.1475C14.2949 21.1588 14.2779 21.1024 14.3146 21.0883L45.2501 8.39395C44.7561 7.87455 44.248 7.36926 43.7117 6.8922L13.5524 19.2675C13.5157 19.2816 13.4903 19.2308 13.5242 19.2111L39.9545 4.09477C39.2996 3.6911 38.6249 3.31849 37.9333 2.9741L12.5306 17.5061C12.4967 17.5258 12.4628 17.4778 12.4967 17.4553L33.7386 1.31145C32.9312 1.07151 32.1098 0.865439 31.2714 0.701715L11.2829 15.8914C11.2518 15.914 11.2123 15.8716 11.2405 15.8434L27.0089 0.224655C26.7295 0.216186 26.45 0.204895 26.1677 0.204895C25.4818 0.204895 24.8043 0.238769 24.1296 0.28958L9.83195 14.4489C9.80372 14.4772 9.76138 14.4376 9.78396 14.4066L20.2708 0.871085C19.1586 1.12514 18.0718 1.44412 17.0161 1.83367L8.20599 13.2097C8.18059 13.2408 8.1326 13.2097 8.15236 13.1758L13.9731 3.18864C12.6943 3.85765 11.4777 4.62546 10.3372 5.48642L6.39091 12.2499C6.39091 12.2499 6.37397 12.2725 6.35421 12.2612C6.33445 12.2499 6.34856 12.2217 6.34856 12.2217L8.55038 6.95712C6.97806 8.37419 5.58357 9.98038 4.39798 11.7362L4.36975 11.7814C1.60902 15.8858 0 20.8116 0 26.1101C0 26.4432 0.0141142 26.7734 0.0254056 27.1009L25.5382 27.0953L36.8098 27.0924C36.8493 27.0924 36.8522 27.1489 36.8126 27.1545L0.657721 31.8771C0.807332 32.5264 0.973879 33.1672 1.17148 33.7967L37.0723 29.1079C37.1119 29.1023 37.1231 29.1587 37.0836 29.17L3.02891 38.2144C3.35071 38.8185 3.69792 39.4056 4.06771 39.9787L37.6002 31.0755C37.6397 31.0642 37.6567 31.1206 37.62 31.1347L6.97241 43.7105C7.46076 44.2327 7.96887 44.7352 8.49957 45.2179L38.385 32.9526C38.4217 32.9385 38.4471 32.9893 38.4132 33.0091L12.1918 48.0068C12.8383 48.4133 13.5045 48.7916 14.1904 49.1388L39.4096 34.7141C39.4435 34.6943 39.4774 34.7423 39.4463 34.7649L18.3174 50.824C19.1134 51.0724 19.9292 51.2813 20.7563 51.4535L40.6602 36.3259C40.6912 36.3034 40.7307 36.3457 40.7025 36.3739L24.9454 51.9842C25.3519 52.004 25.764 52.0153 26.1762 52.0153C26.7153 52.0153 27.2517 51.9927 27.7824 51.9616L42.1111 37.7684C42.1393 37.7402 42.1817 37.7797 42.1591 37.8107L31.5876 51.4592C32.6772 51.2333 33.7414 50.9341 34.7802 50.5784L43.7399 39.0133C43.7653 38.9822 43.8133 39.0133 43.7935 39.0471L37.8063 49.3195C39.037 48.7154 40.2085 48.0153 41.3207 47.2334L45.555 39.9674C45.555 39.9674 45.5691 39.925 45.5973 39.9363C45.6284 39.9476 45.6086 39.9843 45.6086 39.9843L43.1753 45.8022C48.7871 41.0514 52.3467 33.9943 52.3467 26.1101C52.3354 25.777 52.3213 25.4495 52.31 25.1193Z" fill="url(#paint0_linear)"/>
<defs>
<linearGradient id="paint0_linear" x1="26.1734" y1="0.204895" x2="26.1734" y2="52.0153" gradientUnits="userSpaceOnUse">
<stop stop-color="#80B4F3"/>
<stop offset="0.515625" stop-color="#EE6473"/>
<stop offset="1" stop-color="#F9BBBB"/>
</linearGradient>
</defs>
</svg>
