<svg width="53" height="52" viewBox="0 0 53 52" fill="none" xmlns="http://www.w3.org/2000/svg">
<path d="M52.8525 25.0091L26.9417 25.0147L15.6701 25.0176C15.6306 25.0176 15.6277 24.9611 15.6672 24.9555L52.2061 20.1849C52.0565 19.5356 51.8871 18.8948 51.6895 18.2653L15.4047 23.0021C15.3652 23.0077 15.3539 22.9512 15.3934 22.94L49.7982 13.8053C49.4736 13.204 49.1207 12.6168 48.7509 12.0438L14.8769 21.0374C14.8373 21.0487 14.8204 20.9922 14.8571 20.9781L45.7926 8.28378C45.2986 7.76438 44.7905 7.25909 44.2541 6.78203L14.0949 19.1574C14.0582 19.1715 14.0328 19.1207 14.0667 19.1009L40.4969 3.9846C39.842 3.58093 39.1674 3.20832 38.4758 2.86393L13.0731 17.3959C13.0392 17.4157 13.0053 17.3677 13.0392 17.3451L34.281 1.20128C33.4737 0.961338 32.6523 0.755271 31.8139 0.591546L11.8254 15.7812C11.7943 15.8038 11.7548 15.7615 11.783 15.7333L27.5514 0.114486C27.2719 0.106018 26.9925 0.0947266 26.7102 0.0947266C26.0242 0.0947266 25.3468 0.128601 24.6721 0.179412L10.3744 14.3388C10.3462 14.367 10.3039 14.3275 10.3264 14.2964L20.8133 0.760916C19.7011 1.01497 18.6143 1.33395 17.5585 1.7235L8.74847 13.0995C8.72307 13.1306 8.67508 13.0995 8.69484 13.0657L14.5155 3.07847C13.2368 3.74748 12.0201 4.51529 10.8797 5.37626L6.93339 12.1398C6.93339 12.1398 6.91645 12.1624 6.89669 12.1511C6.87693 12.1398 6.89104 12.1115 6.89104 12.1115L9.09286 6.84696C7.52054 8.26402 6.12605 9.87022 4.94046 11.626L4.91223 11.6712C2.1515 15.7756 0.54248 20.7014 0.54248 25.9999C0.54248 26.333 0.556595 26.6633 0.567886 26.9907L26.0807 26.9851L37.3523 26.9823C37.3918 26.9823 37.3946 27.0387 37.3551 27.0444L1.2002 31.767C1.34981 32.4162 1.51636 33.057 1.71396 33.6865L37.6148 28.9978C37.6543 28.9921 37.6656 29.0486 37.6261 29.0599L3.57139 38.1042C3.89319 38.7083 4.2404 39.2955 4.61019 39.8685L38.1427 30.9653C38.1822 30.954 38.1991 31.0105 38.1624 31.0246L7.51489 43.6003C8.00324 44.1225 8.51135 44.625 9.04205 45.1077L38.9274 32.8425C38.9641 32.8284 38.9895 32.8792 38.9557 32.8989L12.7343 47.8967C13.3807 48.3032 14.0469 48.6814 14.7329 49.0286L39.9521 34.6039C39.986 34.5842 40.0199 34.6322 39.9888 34.6547L18.8599 50.7139C19.6559 50.9623 20.4717 51.1712 21.2988 51.3434L41.2026 36.2158C41.2337 36.1932 41.2732 36.2355 41.245 36.2638L25.4879 51.8741C25.8944 51.8938 26.3065 51.9051 26.7187 51.9051C27.2578 51.9051 27.7942 51.8825 28.3249 51.8515L42.6536 37.6582C42.6818 37.63 42.7242 37.6695 42.7016 37.7006L32.13 51.349C33.2197 51.1232 34.2839 50.8239 35.3227 50.4683L44.2824 38.9031C44.3078 38.8721 44.3558 38.9031 44.336 38.937L38.3488 49.2093C39.5795 48.6052 40.751 47.9051 41.8632 47.1232L46.0975 39.8572C46.0975 39.8572 46.1116 39.8149 46.1398 39.8262C46.1708 39.8375 46.1511 39.8742 46.1511 39.8742L43.7178 45.692C49.3296 40.9412 52.8892 33.8841 52.8892 25.9999C52.8779 25.6668 52.8638 25.3394 52.8525 25.0091Z" fill="white"/>
</svg>
