<svg width="53" height="52" viewBox="0 0 53 52" fill="none" xmlns="http://www.w3.org/2000/svg">
<path d="M26.5406 0.726562C12.4405 0.726562 0.995605 12.1715 0.995605 26.2716C0.995605 40.4022 12.4405 51.8166 26.5406 51.8166C40.6712 51.8166 52.0856 40.3717 52.0856 26.2716C52.1161 12.1715 40.6712 0.726562 26.5406 0.726562ZM38.2602 37.5944C37.8024 38.3574 36.8257 38.571 36.0627 38.1133C30.0504 34.4509 22.512 33.6268 13.6002 35.6411C12.7457 35.8243 11.8911 35.3054 11.708 34.4509C11.5249 33.5963 12.0437 32.7418 12.8983 32.5587C22.6341 30.3307 30.9965 31.2768 37.7108 35.397C38.5043 35.8548 38.718 36.8314 38.2602 37.5944ZM41.4037 30.6359C40.8238 31.582 39.603 31.8567 38.6569 31.3073C31.79 27.0956 21.3217 25.8748 13.2035 28.3164C12.1353 28.6216 11.0366 28.0417 10.7314 27.0041C10.4262 25.9359 11.0061 24.8372 12.0743 24.532C21.3523 21.7241 32.8887 23.067 40.7933 27.9197C41.6784 28.469 41.9836 29.6898 41.4037 30.6359ZM41.6784 23.3722C33.4381 18.4891 19.8568 18.0313 11.9827 20.4118C10.7314 20.8086 9.38853 20.0761 8.99177 18.8248C8.59501 17.5735 9.32749 16.2306 10.5788 15.8338C19.6126 13.0871 34.6283 13.6364 44.0894 19.252C45.2187 19.9235 45.5849 21.3884 44.9135 22.5177C44.2726 23.6774 42.8076 24.0436 41.6784 23.3722Z" fill="white"/>
</svg>
