<svg width="58" height="53" viewBox="0 0 58 53" fill="none" xmlns="http://www.w3.org/2000/svg">
<path d="M28.6662 0.0439453C13.021 0.0439453 0.322021 11.7704 0.322021 26.2173C0.322021 40.6956 13.021 52.3907 28.6662 52.3907C44.3452 52.3907 57.0104 40.6643 57.0104 26.2173C57.0443 11.7704 44.3452 0.0439453 28.6662 0.0439453ZM41.67 37.8187C41.162 38.6005 40.0784 38.8193 39.2318 38.3503C32.5606 34.5978 24.1962 33.7535 14.3079 35.8174C13.3597 36.005 12.4115 35.4734 12.2083 34.5978C12.0051 33.7223 12.5808 32.8467 13.529 32.6591C24.3316 30.3763 33.6104 31.3457 41.0604 35.5672C41.9409 36.0363 42.1779 37.0369 41.67 37.8187ZM45.158 30.689C44.5146 31.6584 43.16 31.9398 42.1102 31.377C34.4908 27.0616 22.8755 25.8108 13.8676 28.3125C12.6824 28.6252 11.4633 28.031 11.1246 26.9678C10.786 25.8734 11.4294 24.7476 12.6147 24.4349C22.9093 21.558 35.7099 22.9339 44.4807 27.9059C45.4628 28.4688 45.8014 29.7196 45.158 30.689ZM45.4628 23.2466C36.3195 18.2434 21.25 17.7743 12.5131 20.2134C11.1246 20.6199 9.63463 19.8694 9.19439 18.5873C8.75416 17.3053 9.5669 15.9294 10.9553 15.5228C20.9791 12.7085 37.6402 13.2714 48.138 19.0251C49.391 19.7131 49.7974 21.2141 49.0523 22.3711C48.3412 23.5593 46.7157 23.9346 45.4628 23.2466Z" fill="#1DB954"/>
</svg>
