<svg width="149" height="148" viewBox="0 0 149 148" fill="none" xmlns="http://www.w3.org/2000/svg">
<path d="M13.095 6.35584C13.095 9.57812 10.4817 12.1914 7.2594 12.1914C4.03711 12.1914 1.42383 9.57812 1.42383 6.35584C1.42383 3.13355 4.03711 0.520264 7.2594 0.520264C10.4817 0.520264 13.095 3.13355 13.095 6.35584Z" stroke="#585857"/>
<path d="M46.7781 6.35608C46.7781 9.57837 44.1648 12.1917 40.9425 12.1917C37.7202 12.1917 35.1069 9.57837 35.1069 6.35608C35.1069 3.1343 37.7194 0.521332 40.941 0.520508C44.1677 0.540996 46.7781 3.13706 46.7781 6.35608Z" stroke="#585857"/>
<path d="M80.4612 6.35608C80.4612 9.57837 77.8479 12.1917 74.6256 12.1917C71.4033 12.1917 68.79 9.57837 68.79 6.35608C68.79 3.13379 71.4033 0.520508 74.6256 0.520508C77.8479 0.520508 80.4612 3.13379 80.4612 6.35608Z" stroke="#585857"/>
<path d="M114.144 6.35608C114.144 9.57837 111.531 12.1917 108.308 12.1917C105.086 12.1917 102.473 9.57837 102.473 6.35608C102.473 3.1343 105.085 0.521332 108.307 0.520508C111.534 0.540996 114.144 3.13706 114.144 6.35608Z" stroke="#585857"/>
<path d="M147.827 6.35608C147.827 9.57837 145.214 12.1917 141.992 12.1917C138.769 12.1917 136.156 9.57837 136.156 6.35608C136.156 3.1343 138.769 0.521332 141.99 0.520508C145.217 0.540996 147.827 3.13706 147.827 6.35608Z" stroke="#585857"/>
<path d="M13.095 39.9535C13.095 43.1758 10.4817 45.7891 7.2594 45.7891C4.03711 45.7891 1.42383 43.1758 1.42383 39.9535C1.42383 36.7312 4.03711 34.1179 7.2594 34.1179C10.4817 34.1179 13.095 36.7312 13.095 39.9535Z" stroke="#585857"/>
<path d="M46.7781 39.9532C46.7781 43.1755 44.1648 45.7888 40.9425 45.7888C37.7202 45.7888 35.1069 43.1755 35.1069 39.9532C35.1069 36.731 37.7202 34.1177 40.9425 34.1177C44.1648 34.1177 46.7781 36.731 46.7781 39.9532Z" stroke="#585857"/>
<path d="M80.4612 39.9532C80.4612 43.1755 77.8479 45.7888 74.6256 45.7888C71.4033 45.7888 68.79 43.1755 68.79 39.9532C68.79 36.731 71.4033 34.1177 74.6256 34.1177C77.8479 34.1177 80.4612 36.731 80.4612 39.9532Z" stroke="#585857"/>
<path d="M114.144 39.9532C114.144 43.1755 111.531 45.7888 108.308 45.7888C105.086 45.7888 102.473 43.1755 102.473 39.9532C102.473 36.731 105.086 34.1177 108.308 34.1177C111.531 34.1177 114.144 36.731 114.144 39.9532Z" stroke="#585857"/>
<path d="M147.827 39.9532C147.827 43.1755 145.214 45.7888 141.992 45.7888C138.769 45.7888 136.156 43.1755 136.156 39.9532C136.156 36.731 138.769 34.1177 141.992 34.1177C145.214 34.1177 147.827 36.731 147.827 39.9532Z" stroke="#585857"/>
<path d="M13.095 73.5304C13.095 76.7527 10.4817 79.366 7.2594 79.366C4.03711 79.366 1.42383 76.7527 1.42383 73.5304C1.42383 70.3081 4.03711 67.6948 7.2594 67.6948C10.4806 67.6948 13.095 70.3283 13.095 73.5304Z" stroke="#585857"/>
<path d="M46.7781 73.5299C46.7781 76.7522 44.1648 79.3655 40.9425 79.3655C37.7202 79.3655 35.1069 76.7522 35.1069 73.5299C35.1069 70.3081 37.7194 67.6952 40.941 67.6943C44.1666 67.7148 46.7781 70.3311 46.7781 73.5299Z" stroke="#585857"/>
<path d="M80.4612 73.5299C80.4612 76.7522 77.8479 79.3655 74.6256 79.3655C71.4033 79.3655 68.79 76.7522 68.79 73.5299C68.79 70.3076 71.4033 67.6943 74.6256 67.6943C77.8468 67.6943 80.4612 70.3279 80.4612 73.5299Z" stroke="#585857"/>
<path d="M114.144 73.5299C114.144 76.7522 111.531 79.3655 108.308 79.3655C105.086 79.3655 102.473 76.7522 102.473 73.5299C102.473 70.3081 105.085 67.6952 108.307 67.6943C111.533 67.7148 114.144 70.3311 114.144 73.5299Z" stroke="#585857"/>
<path d="M147.827 73.5299C147.827 76.7522 145.214 79.3655 141.992 79.3655C138.769 79.3655 136.156 76.7522 136.156 73.5299C136.156 70.3081 138.769 67.6952 141.99 67.6943C145.216 67.7148 147.827 70.3311 147.827 73.5299Z" stroke="#585857"/>
<path d="M13.095 107.128C13.095 110.35 10.4817 112.963 7.2594 112.963C4.03711 112.963 1.42383 110.35 1.42383 107.128C1.42383 103.905 4.03711 101.292 7.2594 101.292C10.4817 101.292 13.095 103.905 13.095 107.128Z" stroke="#585857"/>
<path d="M46.7781 107.128C46.7781 110.35 44.1648 112.963 40.9425 112.963C37.7202 112.963 35.1069 110.35 35.1069 107.128C35.1069 103.905 37.7202 101.292 40.9425 101.292C44.1648 101.292 46.7781 103.905 46.7781 107.128Z" stroke="#585857"/>
<path d="M80.4612 107.128C80.4612 110.35 77.8479 112.963 74.6256 112.963C71.4033 112.963 68.79 110.35 68.79 107.128C68.79 103.905 71.4033 101.292 74.6256 101.292C77.8479 101.292 80.4612 103.905 80.4612 107.128Z" stroke="#585857"/>
<path d="M114.144 107.128C114.144 110.35 111.531 112.963 108.308 112.963C105.086 112.963 102.473 110.35 102.473 107.128C102.473 103.905 105.086 101.292 108.308 101.292C111.531 101.292 114.144 103.905 114.144 107.128Z" stroke="#585857"/>
<path d="M147.827 107.128C147.827 110.35 145.214 112.963 141.992 112.963C138.769 112.963 136.156 110.35 136.156 107.128C136.156 103.905 138.769 101.292 141.992 101.292C145.214 101.292 147.827 103.905 147.827 107.128Z" stroke="#585857"/>
<path d="M13.095 140.725C13.095 143.948 10.4817 146.561 7.2594 146.561C4.03711 146.561 1.42383 143.948 1.42383 140.725C1.42383 137.503 4.03711 134.89 7.2594 134.89C10.4817 134.89 13.095 137.503 13.095 140.725Z" stroke="#585857"/>
<path d="M46.7781 140.725C46.7781 143.948 44.1648 146.561 40.9425 146.561C37.7202 146.561 35.1069 143.948 35.1069 140.725C35.1069 137.503 37.7202 134.89 40.9425 134.89C44.1648 134.89 46.7781 137.503 46.7781 140.725Z" stroke="#585857"/>
<path d="M80.4612 140.725C80.4612 143.948 77.8479 146.561 74.6256 146.561C71.4033 146.561 68.79 143.948 68.79 140.725C68.79 137.503 71.4033 134.89 74.6256 134.89C77.8479 134.89 80.4612 137.503 80.4612 140.725Z" stroke="#585857"/>
<path d="M114.144 140.725C114.144 143.948 111.531 146.561 108.308 146.561C105.086 146.561 102.473 143.948 102.473 140.725C102.473 137.503 105.086 134.89 108.308 134.89C111.531 134.89 114.144 137.503 114.144 140.725Z" stroke="#585857"/>
<path d="M147.827 140.725C147.827 143.948 145.214 146.561 141.992 146.561C138.769 146.561 136.156 143.948 136.156 140.725C136.156 137.503 138.769 134.89 141.992 134.89C145.214 134.89 147.827 137.503 147.827 140.725Z" stroke="#585857"/>
</svg>
